<svg width="144" height="37" viewBox="0 0 144 37" fill="none" xmlns="http://www.w3.org/2000/svg">
<path d="M10.2799 22.0001V16.6481L10.6999 17.0801H8.09595V15.5441H14.3239V17.0801H11.7199L12.1399 16.6481V22.0001H10.2799Z" fill="#242424"/>
<path d="M15.3218 22.0001V15.5441H18.6218C19.4298 15.5441 20.0618 15.6921 20.5178 15.9881C20.9738 16.2761 21.2018 16.6841 21.2018 17.2121C21.2018 17.7401 20.9858 18.1561 20.5538 18.4601C20.1298 18.7561 19.5658 18.9041 18.8618 18.9041L19.0538 18.4721C19.8378 18.4721 20.4218 18.6161 20.8058 18.9041C21.1978 19.1921 21.3938 19.6121 21.3938 20.1641C21.3938 20.7321 21.1778 21.1801 20.7458 21.5081C20.3138 21.8361 19.6538 22.0001 18.7658 22.0001H15.3218ZM17.0378 20.7281H18.6098C18.9538 20.7281 19.2098 20.6721 19.3778 20.5601C19.5538 20.4401 19.6418 20.2601 19.6418 20.0201C19.6418 19.7721 19.5618 19.5921 19.4018 19.4801C19.2418 19.3601 18.9898 19.3001 18.6458 19.3001H17.0378V20.7281ZM17.0378 18.1961H18.4538C18.7818 18.1961 19.0258 18.1361 19.1858 18.0161C19.3538 17.8961 19.4378 17.7241 19.4378 17.5001C19.4378 17.2681 19.3538 17.0961 19.1858 16.9841C19.0258 16.8721 18.7818 16.8161 18.4538 16.8161H17.0378V18.1961Z" fill="#242424"/>
<path d="M25.8107 22.0961C25.1227 22.0961 24.5107 21.9521 23.9747 21.6641C23.4467 21.3761 23.0267 20.9841 22.7147 20.4881C22.4107 19.9841 22.2587 19.4121 22.2587 18.7721C22.2587 18.1241 22.4107 17.5521 22.7147 17.0561C23.0267 16.5521 23.4467 16.1601 23.9747 15.8801C24.5107 15.5921 25.1227 15.4481 25.8107 15.4481C26.4907 15.4481 27.0987 15.5921 27.6347 15.8801C28.1707 16.1601 28.5907 16.5481 28.8947 17.0441C29.1987 17.5401 29.3507 18.1161 29.3507 18.7721C29.3507 19.4121 29.1987 19.9841 28.8947 20.4881C28.5907 20.9841 28.1707 21.3761 27.6347 21.6641C27.0987 21.9521 26.4907 22.0961 25.8107 22.0961ZM25.8107 20.5601C26.1227 20.5601 26.4027 20.4881 26.6507 20.3441C26.8987 20.2001 27.0947 19.9961 27.2387 19.7321C27.3827 19.4601 27.4547 19.1401 27.4547 18.7721C27.4547 18.3961 27.3827 18.0761 27.2387 17.8121C27.0947 17.5481 26.8987 17.3441 26.6507 17.2001C26.4027 17.0561 26.1227 16.9841 25.8107 16.9841C25.4987 16.9841 25.2187 17.0561 24.9707 17.2001C24.7227 17.3441 24.5227 17.5481 24.3707 17.8121C24.2267 18.0761 24.1547 18.3961 24.1547 18.7721C24.1547 19.1401 24.2267 19.4601 24.3707 19.7321C24.5227 19.9961 24.7227 20.2001 24.9707 20.3441C25.2187 20.4881 25.4987 20.5601 25.8107 20.5601Z" fill="#242424"/>
<path d="M30.6382 22.0001V15.5441H32.4982V19.3841L35.6422 15.5441H37.3582V22.0001H35.4982V18.1601L32.3662 22.0001H30.6382ZM33.8782 14.8481C33.1742 14.8481 32.6462 14.6961 32.2942 14.3921C31.9422 14.0801 31.7622 13.6121 31.7542 12.9881H32.9782C32.9862 13.2601 33.0622 13.4761 33.2062 13.6361C33.3502 13.7961 33.5702 13.8761 33.8662 13.8761C34.1542 13.8761 34.3742 13.7961 34.5262 13.6361C34.6862 13.4761 34.7662 13.2601 34.7662 12.9881H36.0142C36.0142 13.6121 35.8342 14.0801 35.4742 14.3921C35.1142 14.6961 34.5822 14.8481 33.8782 14.8481Z" fill="#242424"/>
<path d="M42.7002 22.0001V13.6001H44.3082L47.8842 19.5281H47.0322L50.5482 13.6001H52.1562L52.1682 22.0001H50.3442L50.3322 16.3961H50.6802L47.8602 21.1121H46.9962L44.1162 16.3961H44.5242V22.0001H42.7002Z" fill="#242424"/>
<path d="M53.3069 22.0001L57.0509 13.6001H58.9709L62.7269 22.0001H60.6869L57.6149 14.5841H58.3829L55.2989 22.0001H53.3069ZM55.1789 20.2001L55.6949 18.7241H60.0149L60.5429 20.2001H55.1789Z" fill="#242424"/>
<path d="M69.6008 13.6001H71.5448V22.0001H69.6008V13.6001ZM65.7848 22.0001H63.8408V13.6001H65.7848V22.0001ZM69.7448 18.5561H65.6408V16.9121H69.7448V18.5561Z" fill="#242424"/>
<path d="M73.6494 22.0001V13.6001H75.5814V19.0721L79.5894 13.6001H81.4134V22.0001H79.4934V16.5401L75.4854 22.0001H73.6494Z" fill="#242424"/>
<path d="M88.9409 22.0001L86.3249 17.9561L87.8969 17.0081L91.1489 22.0001H88.9409ZM83.4809 22.0001V13.6001H85.4129V22.0001H83.4809ZM84.8489 18.6161V16.9961H87.7769V18.6161H84.8489ZM88.0769 18.0161L86.2889 17.8001L89.0129 13.6001H91.0649L88.0769 18.0161Z" fill="#242424"/>
<path d="M92.0596 22.0001V13.6001H93.9916V16.9001H96.1636V18.5801H93.9916V22.0001H92.0596ZM99.4756 22.1441C98.8356 22.1441 98.2436 22.0361 97.6996 21.8201C97.1636 21.6041 96.6956 21.3041 96.2956 20.9201C95.8956 20.5281 95.5836 20.0681 95.3596 19.5401C95.1436 19.0041 95.0356 18.4241 95.0356 17.8001C95.0356 17.1681 95.1436 16.5881 95.3596 16.0601C95.5836 15.5321 95.8956 15.0761 96.2956 14.6921C96.6956 14.3001 97.1636 13.9961 97.6996 13.7801C98.2436 13.5641 98.8356 13.4561 99.4756 13.4561C100.108 13.4561 100.696 13.5641 101.24 13.7801C101.784 13.9961 102.252 14.3001 102.644 14.6921C103.044 15.0761 103.356 15.5361 103.58 16.0721C103.804 16.6001 103.916 17.1761 103.916 17.8001C103.916 18.4241 103.804 19.0041 103.58 19.5401C103.356 20.0681 103.044 20.5281 102.644 20.9201C102.252 21.3041 101.784 21.6041 101.24 21.8201C100.696 22.0361 100.108 22.1441 99.4756 22.1441ZM99.4756 20.4881C99.8276 20.4881 100.152 20.4241 100.448 20.2961C100.744 20.1681 101.004 19.9881 101.228 19.7561C101.452 19.5161 101.628 19.2321 101.756 18.9041C101.884 18.5761 101.948 18.2081 101.948 17.8001C101.948 17.3921 101.884 17.0241 101.756 16.6961C101.628 16.3681 101.452 16.0881 101.228 15.8561C101.004 15.6161 100.744 15.4321 100.448 15.3041C100.152 15.1761 99.8276 15.1121 99.4756 15.1121C99.1316 15.1121 98.8076 15.1761 98.5036 15.3041C98.2076 15.4321 97.9476 15.6161 97.7236 15.8561C97.4996 16.0881 97.3236 16.3681 97.1956 16.6961C97.0676 17.0241 97.0036 17.3921 97.0036 17.8001C97.0036 18.2081 97.0676 18.5761 97.1956 18.9041C97.3236 19.2321 97.4996 19.5161 97.7236 19.7561C97.9476 19.9881 98.2076 20.1681 98.5036 20.2961C98.8076 20.4241 99.1316 20.4881 99.4756 20.4881Z" fill="#242424"/>
<path d="M105.431 22.0001V13.6001H109.067C109.819 13.6001 110.467 13.7241 111.011 13.9721C111.555 14.2121 111.975 14.5601 112.271 15.0161C112.567 15.4721 112.715 16.0161 112.715 16.6481C112.715 17.2721 112.567 17.8121 112.271 18.2681C111.975 18.7241 111.555 19.0761 111.011 19.3241C110.467 19.5641 109.819 19.6841 109.067 19.6841H106.511L107.375 18.8081V22.0001H105.431ZM107.375 19.0241L106.511 18.1001H108.959C109.559 18.1001 110.007 17.9721 110.303 17.7161C110.599 17.4601 110.747 17.1041 110.747 16.6481C110.747 16.1841 110.599 15.8241 110.303 15.5681C110.007 15.3121 109.559 15.1841 108.959 15.1841H106.511L107.375 14.2601V19.0241Z" fill="#242424"/>
<path d="M119.757 13.6001H121.701V22.0001H119.757V13.6001ZM115.941 22.0001H113.997V13.6001H115.941V22.0001ZM119.901 18.5561H115.797V16.9121H119.901V18.5561Z" fill="#242424"/>
<path d="M127.874 16.3601C128.89 16.3601 129.674 16.5881 130.226 17.0441C130.778 17.4921 131.054 18.1681 131.054 19.0721C131.054 20.0321 130.746 20.7601 130.13 21.2561C129.522 21.7521 128.678 22.0001 127.598 22.0001H123.806V13.6001H125.738V16.3601H127.874ZM127.49 20.5601C127.986 20.5601 128.378 20.4361 128.666 20.1881C128.954 19.9401 129.098 19.5801 129.098 19.1081C129.098 18.6441 128.954 18.3121 128.666 18.1121C128.386 17.9041 127.994 17.8001 127.49 17.8001H125.738V20.5601H127.49ZM132.122 22.0001V13.6001H134.054V22.0001H132.122Z" fill="#242424"/>
<path d="M136.146 22.0001V13.6001H138.078V19.0721L142.086 13.6001H143.91V22.0001H141.99V16.5401L137.982 22.0001H136.146ZM140.022 13.0601C139.222 13.0601 138.634 12.9001 138.258 12.5801C137.89 12.2601 137.702 11.8081 137.694 11.2241H139.026C139.034 11.5121 139.118 11.7321 139.278 11.8841C139.446 12.0281 139.694 12.1001 140.022 12.1001C140.342 12.1001 140.586 12.0281 140.754 11.8841C140.922 11.7321 141.01 11.5121 141.018 11.2241H142.35C142.342 11.8081 142.15 12.2601 141.774 12.5801C141.398 12.9001 140.814 13.0601 140.022 13.0601Z" fill="#242424"/>
<path d="M123.422 36.3855V32.0815H124.662V33.7615H126.534V32.0815H127.782V36.3855H126.534V34.7775H124.662V36.3855H123.422Z" fill="#242424"/>
<path d="M117.742 36.3855V32.0815H118.982V34.6415L121.078 32.0815H122.222V36.3855H120.982V33.8255L118.894 36.3855H117.742Z" fill="#242424"/>
<path d="M114.706 36.4656C114.375 36.4656 114.045 36.4309 113.714 36.3616C113.389 36.2923 113.087 36.1883 112.81 36.0496L113.146 35.1776C113.365 35.2843 113.602 35.3669 113.858 35.4256C114.119 35.4789 114.383 35.5056 114.65 35.5056C114.842 35.5056 115.007 35.4869 115.146 35.4496C115.29 35.4069 115.399 35.3483 115.474 35.2736C115.549 35.1989 115.586 35.1083 115.586 35.0016C115.586 34.8629 115.527 34.7589 115.41 34.6896C115.293 34.6149 115.122 34.5776 114.898 34.5776H114.018V33.8016H114.794C114.938 33.8016 115.061 33.7856 115.162 33.7536C115.263 33.7216 115.338 33.6763 115.386 33.6176C115.439 33.5536 115.466 33.4789 115.466 33.3936C115.466 33.3029 115.434 33.2256 115.37 33.1616C115.306 33.0976 115.213 33.0496 115.09 33.0176C114.967 32.9803 114.813 32.9616 114.626 32.9616C114.413 32.9616 114.191 32.9883 113.962 33.0416C113.733 33.0896 113.498 33.1616 113.258 33.2576L112.954 32.3936C113.237 32.2763 113.517 32.1829 113.794 32.1136C114.071 32.0443 114.346 32.0069 114.618 32.0016C115.018 31.9909 115.378 32.0336 115.698 32.1296C116.018 32.2256 116.269 32.3643 116.45 32.5456C116.637 32.7269 116.73 32.9483 116.73 33.2096C116.73 33.4176 116.666 33.6043 116.538 33.7696C116.415 33.9349 116.245 34.0656 116.026 34.1616C115.807 34.2523 115.562 34.2976 115.29 34.2976L115.322 34.0496C115.797 34.0496 116.17 34.1456 116.442 34.3376C116.714 34.5243 116.85 34.7803 116.85 35.1056C116.85 35.3829 116.754 35.6256 116.562 35.8336C116.375 36.0363 116.119 36.1936 115.794 36.3056C115.474 36.4123 115.111 36.4656 114.706 36.4656Z" fill="#242424"/>
<path d="M111.037 36.3856V35.5456L110.957 35.3616V33.8576C110.957 33.5909 110.874 33.3829 110.709 33.2336C110.549 33.0842 110.301 33.0096 109.965 33.0096C109.736 33.0096 109.509 33.0469 109.285 33.1216C109.066 33.1909 108.88 33.2869 108.725 33.4096L108.277 32.5376C108.512 32.3722 108.794 32.2442 109.125 32.1536C109.456 32.0629 109.792 32.0176 110.133 32.0176C110.789 32.0176 111.298 32.1722 111.661 32.4816C112.024 32.7909 112.205 33.2736 112.205 33.9296V36.3856H111.037ZM109.725 36.4496C109.389 36.4496 109.101 36.3936 108.861 36.2816C108.621 36.1642 108.437 36.0069 108.309 35.8096C108.181 35.6122 108.117 35.3909 108.117 35.1456C108.117 34.8896 108.178 34.6656 108.301 34.4736C108.429 34.2816 108.629 34.1322 108.901 34.0256C109.173 33.9136 109.528 33.8576 109.965 33.8576H111.109V34.5856H110.101C109.808 34.5856 109.605 34.6336 109.493 34.7296C109.386 34.8256 109.333 34.9456 109.333 35.0896C109.333 35.2496 109.394 35.3776 109.517 35.4736C109.645 35.5642 109.818 35.6096 110.037 35.6096C110.245 35.6096 110.432 35.5616 110.597 35.4656C110.762 35.3642 110.882 35.2176 110.957 35.0256L111.149 35.6016C111.058 35.8789 110.893 36.0896 110.653 36.2336C110.413 36.3776 110.104 36.4496 109.725 36.4496Z" fill="#242424"/>
<path d="M104.352 36.3855V32.0815H107.8V33.1055H105.312L105.592 32.8335V36.3855H104.352Z" fill="#242424"/>
<path d="M102.099 36.3856V35.5456L102.019 35.3616V33.8576C102.019 33.5909 101.937 33.3829 101.771 33.2336C101.611 33.0842 101.363 33.0096 101.027 33.0096C100.798 33.0096 100.571 33.0469 100.347 33.1216C100.129 33.1909 99.9421 33.2869 99.7874 33.4096L99.3394 32.5376C99.5741 32.3722 99.8568 32.2442 100.187 32.1536C100.518 32.0629 100.854 32.0176 101.195 32.0176C101.851 32.0176 102.361 32.1722 102.723 32.4816C103.086 32.7909 103.267 33.2736 103.267 33.9296V36.3856H102.099ZM100.787 36.4496C100.451 36.4496 100.163 36.3936 99.9234 36.2816C99.6834 36.1642 99.4994 36.0069 99.3714 35.8096C99.2434 35.6122 99.1794 35.3909 99.1794 35.1456C99.1794 34.8896 99.2408 34.6656 99.3634 34.4736C99.4914 34.2816 99.6914 34.1322 99.9634 34.0256C100.235 33.9136 100.59 33.8576 101.027 33.8576H102.171V34.5856H101.163C100.87 34.5856 100.667 34.6336 100.555 34.7296C100.449 34.8256 100.395 34.9456 100.395 35.0896C100.395 35.2496 100.457 35.3776 100.579 35.4736C100.707 35.5642 100.881 35.6096 101.099 35.6096C101.307 35.6096 101.494 35.5616 101.659 35.4656C101.825 35.3642 101.945 35.2176 102.019 35.0256L102.211 35.6016C102.121 35.8789 101.955 36.0896 101.715 36.2336C101.475 36.3776 101.166 36.4496 100.787 36.4496Z" fill="#242424"/>
<path d="M93 36.3855V32.0815H94.304L95.928 35.0255H95.408L97.144 32.0815H98.312L98.328 36.3855H97.2V33.3615L97.392 33.4895L95.912 35.9695H95.384L93.896 33.4015L94.128 33.3455V36.3855H93Z" fill="#242424"/>
<path d="M89 1H1V34H89" stroke="#242424" stroke-width="2"/>
</svg>
